<?xml version="1.0" encoding="UTF-8" standalone="no"?>
<!-- Created with Inkscape (http://www.inkscape.org/) -->

<svg
   xmlns:dc="http://purl.org/dc/elements/1.1/"
   xmlns:cc="http://creativecommons.org/ns#"
   xmlns:rdf="http://www.w3.org/1999/02/22-rdf-syntax-ns#"
   xmlns:svg="http://www.w3.org/2000/svg"
   xmlns="http://www.w3.org/2000/svg"
   xmlns:sodipodi="http://sodipodi.sourceforge.net/DTD/sodipodi-0.dtd"
   xmlns:inkscape="http://www.inkscape.org/namespaces/inkscape"
   width="152.27017"
   height="366.11237"
   id="svg2"
   version="1.1"
   inkscape:version="0.48.2 r9819"
   sodipodi:docname="blinkyhosplogo.svg">
  <defs
     id="defs4">
    <inkscape:perspective
       sodipodi:type="inkscape:persp3d"
       inkscape:vp_x="0 : 0.5 : 1"
       inkscape:vp_y="0 : 1000 : 0"
       inkscape:vp_z="1 : 0.5 : 1"
       inkscape:persp3d-origin="0.5 : 0.33333333 : 1"
       id="perspective2830" />
    <inkscape:perspective
       id="perspective2845"
       inkscape:persp3d-origin="372.04724 : 350.78739 : 1"
       inkscape:vp_z="744.09448 : 526.18109 : 1"
       inkscape:vp_y="0 : 1000 : 0"
       inkscape:vp_x="0 : 526.18109 : 1"
       sodipodi:type="inkscape:persp3d" />
  </defs>
  <sodipodi:namedview
     id="base"
     pagecolor="#ffffff"
     bordercolor="#666666"
     borderopacity="1.0"
     inkscape:pageopacity="0.0"
     inkscape:pageshadow="2"
     inkscape:zoom="0.7878599"
     inkscape:cx="143.19443"
     inkscape:cy="208.16807"
     inkscape:document-units="px"
     inkscape:current-layer="layer1"
     showgrid="false"
     inkscape:window-width="1360"
     inkscape:window-height="724"
     inkscape:window-x="4"
     inkscape:window-y="0"
     inkscape:window-maximized="0"
     fit-margin-top="0"
     fit-margin-left="0"
     fit-margin-right="0"
     fit-margin-bottom="0"
     showborder="false"
     inkscape:showpageshadow="false" />
  <metadata
     id="metadata7">
    <rdf:RDF>
      <cc:Work
         rdf:about="">
        <dc:format>image/svg+xml</dc:format>
        <dc:type
           rdf:resource="http://purl.org/dc/dcmitype/StillImage" />
        <dc:title></dc:title>
      </cc:Work>
    </rdf:RDF>
  </metadata>
  <g
     inkscape:label="Layer 1"
     inkscape:groupmode="layer"
     id="layer1"
     transform="translate(-266.91429,-144.92843)">
    <g
       id="g4371"
       transform="matrix(0.63863552,0,0,0.63863552,39.711674,-61.111355)">
      <g
         transform="matrix(-1.1084871,0,0,1.1084871,231.20793,254.17686)"
         id="XMLID_2_">
	<g
   transform="matrix(1.1104531,0,0,1.1104531,-330.39155,214.82369)"
   id="g3087">
		
		
		
		<path
   style="fill:#000000;fill-opacity:1"
   inkscape:connector-curvature="0"
   d="m 44.8,12.28 c 23.6,-8.7 36.89,8.96 57.26,10.38 15.04,1.04 30.341,-3.2 44.65,-2.47 27.3,1.39 50.87,18 49.58,49.07 -1.41,34 -36.98,42.76 -73.13,41.6 -0.63,-10.32 0.84,-13.97 0.27,-23.9 22.07,-0.14 53.08,0.93 44.95,-25.6 C 166.14,54.06 156.21,48.16 148.8,46.35 116.6,38.51 65.66,64.18 40.21,50.92 34.87,48.13 29.16,40.44 25.33,39.67 16.02,37.78 7.56,44.71 3.07,43.98 7.87,37.82 6.53,29.65 2.64,23.18 10.12,24.53 13.47,29.71 22.01,28.17 29.76,26.78 36.46,15.36 44.8,12.28 z M 75.24,30.15 C 68.44,24.14 54.05,22.26 46.7,29.2 c 3.7,9.09 23.32,8.19 28.54,0.95 z"
   id="path3095" />

		<path
   style="fill:#000000;fill-opacity:1"
   inkscape:connector-curvature="0"
   d="m 129.81,171.61 c -28.21,-2.75 -58.22,6.35 -81.79,-4.46 -5.86,-2.69 -13.28,-8.46 -16.48,-14.311 -17.49,-31.89 9.53,-60.47 39.52,-64.02 6.33,-0.75 12.15,0.2 20.03,-0.42 -1.26,6.05 0.5,16.94 -1.03,24.69 -18.37,-0.58 -41.35,2.45 -37.34,20.81 2.28,10.43 12.7,14.13 24.21,14.92 24.129,1.65 54.72,-8 78.7,3.76 19.8,9.71 27.26,39.96 14.29,57.51 -8.07,10.92 -22.66,13.76 -46.689,15.62 -0.15,-7.45 -0.311,-14.9 -0.461,-22.35 11.641,-0.49 27.62,-1.53 29.021,-12.931 C 153.5,176.47 136.41,172.26 129.81,171.61 z"
   id="path3097" />

		<path
   style="fill:#000000;fill-opacity:1"
   inkscape:connector-curvature="0"
   d="m 90.07,224.85 c -9.06,0.62 -17,2.32 -20.64,8.141 -3.87,18.76 18.15,19.37 33.56,20.109 24.2,1.17 49.16,0.311 53.649,22.78 -35.46,-11.03 -113.97,12.65 -111.84,-40.84 0.94,-23.48 19.56,-30.16 45.61,-31.01 0.041,9.35 0.531,15.14 -0.339,20.82 z"
   id="path3099" />

	</g>

	
</g>
      <path
         sodipodi:nodetypes="scccccccccccccccccccccccccccccccccccccs"
         inkscape:connector-curvature="0"
         id="rect3914"
         d="m 466.125,322.625 c -15.5631,0 -28.66729,10.54131 -32.5,24.84375 l -0.0625,0 0,91.59375 -11.4375,0 0,17.6875 27.46875,0 0,30.5 -3.21875,0 0,20.96875 3.21875,0 0,387.67906 5,0 0,-387.67906 3.15625,0 0,-20.96875 -3.15625,0 0,-30.5 23.03125,0 0,30.5 -3.21875,0 0,20.96875 3.21875,0 0,341.83059 5,0 0,-341.83059 3.1875,0 0,-20.96875 -3.1875,0 0,-30.5 27.46875,0 0,-17.6875 -11.46875,0 0,-91.40625 0.0312,0 c -0.0109,-0.0415 -0.0202,-0.0835 -0.0312,-0.125 l 0,-0.0625 -0.0312,0 C 494.76093,333.16648 481.68801,322.625 466.125,322.625 z"
         style="fill:#000000;fill-opacity:1;fill-rule:evenodd;stroke:none" />
    </g>
    <g
       transform="matrix(0,3.1996567,-3.03679,0,1830.3943,163.26581)"
       style="stroke-width:3.20804858;stroke-miterlimit:4;stroke-dasharray:none;display:inline"
       id="layer1-6"
       inkscape:label="Layer 1" />
  </g>
</svg>
