<?xml version="1.0" encoding="UTF-8" standalone="no"?>
<!-- Created with Inkscape (http://www.inkscape.org/) -->

<svg
   xmlns:dc="http://purl.org/dc/elements/1.1/"
   xmlns:cc="http://creativecommons.org/ns#"
   xmlns:rdf="http://www.w3.org/1999/02/22-rdf-syntax-ns#"
   xmlns:svg="http://www.w3.org/2000/svg"
   xmlns="http://www.w3.org/2000/svg"
   xmlns:sodipodi="http://sodipodi.sourceforge.net/DTD/sodipodi-0.dtd"
   xmlns:inkscape="http://www.inkscape.org/namespaces/inkscape"
   width="2160"
   height="1080"
   id="svg2"
   version="1.1"
   inkscape:version="0.48.2 r9819"
   sodipodi:docname="blinkyhosppendant_sk.svg">
  <defs
     id="defs4">
    <inkscape:perspective
       sodipodi:type="inkscape:persp3d"
       inkscape:vp_x="0 : 526.18109 : 1"
       inkscape:vp_y="0 : 1000 : 0"
       inkscape:vp_z="744.09448 : 526.18109 : 1"
       inkscape:persp3d-origin="372.04724 : 350.78739 : 1"
       id="perspective2845" />
    <inkscape:perspective
       id="perspective2830"
       inkscape:persp3d-origin="0.5 : 0.33333333 : 1"
       inkscape:vp_z="1 : 0.5 : 1"
       inkscape:vp_y="0 : 1000 : 0"
       inkscape:vp_x="0 : 0.5 : 1"
       sodipodi:type="inkscape:persp3d" />
  </defs>
  <sodipodi:namedview
     id="base"
     pagecolor="#ffffff"
     bordercolor="#666666"
     borderopacity="1.0"
     inkscape:pageopacity="0.0"
     inkscape:pageshadow="2"
     inkscape:zoom="1.4945122"
     inkscape:cx="-137.94561"
     inkscape:cy="962.42045"
     inkscape:document-units="px"
     inkscape:current-layer="layer2"
     showgrid="false"
     units="ft"
     inkscape:window-width="1288"
     inkscape:window-height="697"
     inkscape:window-x="4"
     inkscape:window-y="0"
     inkscape:window-maximized="0" />
  <metadata
     id="metadata7">
    <rdf:RDF>
      <cc:Work
         rdf:about="">
        <dc:format>image/svg+xml</dc:format>
        <dc:type
           rdf:resource="http://purl.org/dc/dcmitype/StillImage" />
        <dc:title></dc:title>
      </cc:Work>
    </rdf:RDF>
  </metadata>
  <g
     inkscape:label="Layer 1"
     inkscape:groupmode="layer"
     id="layer1"
     transform="translate(0,27.675)"
     style="display:inline">
    <g
       transform="matrix(0,3.1996567,-3.03679,0,1889.1117,402.3065)"
       style="stroke-width:3.20804858;stroke-miterlimit:4;stroke-dasharray:none;display:inline"
       id="layer1-6"
       inkscape:label="Layer 1" />
    <text
       xml:space="preserve"
       style="font-size:98px;font-style:normal;font-variant:normal;font-weight:500;font-stretch:normal;text-align:center;line-height:110.00000238%;writing-mode:lr-tb;text-anchor:middle;fill:none;stroke:#ff0000;stroke-width:1;stroke-linejoin:round;stroke-miterlimit:4;stroke-opacity:1;stroke-dasharray:none;stroke-dashoffset:0;font-family:Futura;-inkscape-font-specification:Futura Medium"
       x="965.61987"
       y="131.48599"
       id="text3148"
       sodipodi:linespacing="110%"><tspan
         sodipodi:role="line"
         id="tspan3150"
         x="965.61987"
         y="131.48599"
         style="font-style:normal;font-variant:normal;font-weight:normal;font-stretch:normal;fill:#000000;fill-opacity:1;stroke:none;font-family:Spin Cycle OT;-inkscape-font-specification:Spin Cycle OT" /></text>
  </g>
  <g
     inkscape:groupmode="layer"
     id="layer2"
     inkscape:label="Cut"
     style="display:inline">
    <g
       transform="translate(-138.25364,7.1672662)"
       id="g5061">
      <g
         id="g5063"
         transform="translate(-22.817175,-10.36997)">
        <path
           sodipodi:nodetypes="csssc"
           inkscape:connector-curvature="0"
           id="path5065"
           d="m 73.046003,130.23041 c 0.429262,1.04259 0.574222,1.98013 0.574222,3.20206 0,4.78456 -3.878644,8.66321 -8.663202,8.66321 -4.784558,0 -8.663224,-3.87865 -8.663224,-8.66321 0,-1.11363 0.166918,-2.09176 0.549684,-3.06975"
           style="fill:none;stroke:#ff0000;stroke-width:0.58448368;stroke-miterlimit:4;stroke-opacity:1;stroke-dasharray:none" />
        <g
           id="g5067">
          <g
             transform="matrix(0,0.45395537,-0.45395537,0,137.56461,69.095878)"
             style="stroke:#000000;stroke-opacity:1;display:inline"
             id="g5069"
             inkscape:label="Layer 1">
            <path
               d="m -42.243603,98.027498 0,0.29881 c 10.512296,18.240622 16.584358,39.303842 16.584358,61.855182 0,22.55132 -6.072062,43.61454 -16.584358,61.85522 l 0,0.29881 16.584358,0 47.81076,0 c 45.949531,0 86.059705,-25.04953 107.574215,-62.15403 C 108.21122,123.07694 68.101046,98.027498 22.151515,98.027498 l -47.81076,0 z M 148.99944,160.1832 c 0,5.27832 -4.28384,9.56216 -9.56214,9.56216 -5.27832,0 -9.56216,-4.28384 -9.56216,-9.56216 0,-5.2783 4.28384,-9.56214 9.56216,-9.56214 5.2783,0 9.56214,4.28384 9.56214,9.56214 z m -215.712662,-31.07851 36.422797,0 m -36.422797,62.15399 28.358815,0 0.259555,0 7.804427,0"
               style="fill:none;stroke:#000000;stroke-width:4.78107595;stroke-linecap:square;stroke-miterlimit:4;stroke-opacity:1;stroke-dashoffset:0;display:inline"
               id="path5071"
               inkscape:connector-curvature="0"
               sodipodi:nodetypes="ccscccscsccssssscccccc" />
          </g>
          <path
             sodipodi:nodetypes="cccsccsccc"
             inkscape:connector-curvature="0"
             id="path5073"
             d="m 31.244398,42.297878 -0.162854,0 0,9.038883 0,26.058039 c 0,21.541099 10.04264,40.65484 25.73242,53.05624 m 16.254394,-0.002 C 88.795667,118.05393 98.83248,98.971182 98.83248,77.394782 l 0,-26.058039 0,-9.038884 -0.162873,0"
             style="fill:none;stroke:#ff0000;stroke-width:0.5;stroke-linecap:square;stroke-miterlimit:4;stroke-opacity:1;stroke-dasharray:none;stroke-dashoffset:0;display:inline" />
          <path
             sodipodi:nodetypes="cccc"
             inkscape:connector-curvature="0"
             id="path5075"
             d="m 45.07446,47.991984 0,-13.217789 m 10.008008,-0.160366 0,15.439801"
             style="fill:none;stroke:#ff0000;stroke-width:0.5;stroke-miterlimit:4;stroke-opacity:1;stroke-dasharray:none" />
          <g
             id="g5077"
             transform="matrix(0.19596961,0,0,0.19596961,-195.64715,-12.400471)"
             style="stroke-width:2.55141592;stroke-miterlimit:4;stroke-dasharray:none">
            <path
               transform="matrix(0.38393849,0,0,0.40039298,1229.4329,172.43625)"
               d="m 526.13733,76.234154 c 0,32.389226 -27.38194,58.645886 -61.15927,58.645886 -33.77734,0 -61.15928,-26.25666 -61.15928,-58.645886 0,-32.389226 27.38194,-58.645882 61.15928,-58.645882 33.77733,0 61.15927,26.256656 61.15927,58.645882 z"
               sodipodi:ry="58.645882"
               sodipodi:rx="61.159275"
               sodipodi:cy="76.234154"
               sodipodi:cx="464.97806"
               id="path5079"
               style="fill:none;stroke:#ff0000;stroke-width:6.50739574;stroke-miterlimit:4;stroke-opacity:1;stroke-dasharray:none"
               sodipodi:type="arc" />
          </g>
          <g
             transform="matrix(0.18322939,0,0,0.18322939,8.2866683,9.5295617)"
             style="stroke-width:2.72881985;stroke-miterlimit:4;stroke-dasharray:none;display:inline"
             id="g5081"
             inkscape:label="Layer 1">
            <path
               d="m 493.79479,177.75093 -0.89203,0 c -24.2712,13.45027 -42.67041,21.30264 -69.93699,29.27346 m -61.17022,13.51023 c -20.67514,3.47619 -31.80739,4.82147 -53.54275,4.82147 -20.26445,0 -33.75939,-1.34351 -53.11015,-4.3744 M 200.6433,209.26282 c -28.31291,-8.03558 -51.92249,-17.59233 -77.04057,-31.51189"
               style="fill:none;stroke:#fd0000;stroke-width:2.72881985;stroke-linecap:square;stroke-miterlimit:4;stroke-opacity:1;stroke-dasharray:none;stroke-dashoffset:0;display:inline"
               id="path5083"
               inkscape:connector-curvature="0"
               sodipodi:nodetypes="ccccsccc" />
          </g>
          <path
             style="fill:none;stroke:#ff0000;stroke-width:0.5;stroke-linecap:butt;stroke-linejoin:miter;stroke-miterlimit:4;stroke-opacity:1;stroke-dasharray:none"
             d="m 74.561728,34.012419 0,16.024035"
             id="path5085"
             inkscape:connector-curvature="0"
             sodipodi:nodetypes="cc" />
          <path
             style="fill:none;stroke:#ff0000;stroke-width:0.5;stroke-linecap:butt;stroke-linejoin:miter;stroke-miterlimit:4;stroke-opacity:1;stroke-dasharray:none"
             d="m 85.832358,34.288842 0,13.167467"
             id="path5087"
             inkscape:connector-curvature="0"
             sodipodi:nodetypes="cc" />
          <path
             style="fill:none;stroke:#ff0000;stroke-width:0.49999997;stroke-linejoin:round;stroke-miterlimit:4;stroke-opacity:1;stroke-dasharray:none;stroke-dashoffset:0"
             d="m 45.072888,34.772065 c -2.392126,-1.549279 -3.75891,-4.025726 -3.75891,-7.087904 0,-4.802493 3.893191,-8.695685 8.695685,-8.695685 4.802495,0 8.695685,3.893192 8.695685,8.695685 0,2.978263 -1.367639,5.520406 -3.650509,7.087602"
             id="path5089"
             inkscape:connector-curvature="0"
             sodipodi:nodetypes="csssc" />
          <path
             style="fill:none;stroke:#ff0000;stroke-width:0.49999997;stroke-linejoin:round;stroke-miterlimit:4;stroke-opacity:1;stroke-dasharray:none;stroke-dashoffset:0"
             d="m 74.526005,34.062455 c -1.768133,-1.591694 -2.793448,-3.811957 -2.793448,-6.378294 0,-4.802493 3.893191,-8.695685 8.695685,-8.695685 4.802495,0 8.695685,3.893192 8.695685,8.695685 0,2.748832 -1.275465,4.983723 -3.26686,6.577219"
             id="path5091"
             inkscape:connector-curvature="0"
             sodipodi:nodetypes="csssc" />
          <g
             transform="matrix(0.19596961,0,0,0.19596961,-225.83334,-12.400471)"
             id="g5093"
             style="stroke-width:2.55141592;stroke-miterlimit:4;stroke-dasharray:none">
            <path
               sodipodi:type="arc"
               style="fill:none;stroke:#ff0000;stroke-width:6.50739574;stroke-miterlimit:4;stroke-opacity:1;stroke-dasharray:none"
               id="path5095"
               sodipodi:cx="464.97806"
               sodipodi:cy="76.234154"
               sodipodi:rx="61.159275"
               sodipodi:ry="58.645882"
               d="m 526.13733,76.234154 c 0,32.389226 -27.38194,58.645886 -61.15927,58.645886 -33.77734,0 -61.15928,-26.25666 -61.15928,-58.645886 0,-32.389226 27.38194,-58.645882 61.15928,-58.645882 33.77733,0 61.15927,26.256656 61.15927,58.645882 z"
               transform="matrix(0.38393849,0,0,0.40039298,1229.4329,172.43625)" />
          </g>
        </g>
      </g>
      <g
         id="g5097"
         transform="translate(-80.885769,1.3826627)">
        <g
           transform="matrix(0.13191282,0,0,0.11423545,151.96124,43.970693)"
           id="g5099">
          <g
             transform="matrix(1.1104531,0,0,1.1104531,-330.39155,214.82369)"
             id="g5101">
            <path
               style="fill:#000000;fill-opacity:1"
               inkscape:connector-curvature="0"
               d="m 44.8,12.28 c 23.6,-8.7 36.89,8.96 57.26,10.38 15.04,1.04 30.341,-3.2 44.65,-2.47 27.3,1.39 50.87,18 49.58,49.07 -1.41,34 -36.98,42.76 -73.13,41.6 -0.63,-10.32 0.84,-13.97 0.27,-23.9 22.07,-0.14 53.08,0.93 44.95,-25.6 C 166.14,54.06 156.21,48.16 148.8,46.35 116.6,38.51 65.66,64.18 40.21,50.92 34.87,48.13 29.16,40.44 25.33,39.67 16.02,37.78 7.56,44.71 3.07,43.98 7.87,37.82 6.53,29.65 2.64,23.18 10.12,24.53 13.47,29.71 22.01,28.17 29.76,26.78 36.46,15.36 44.8,12.28 z M 75.24,30.15 C 68.44,24.14 54.05,22.26 46.7,29.2 c 3.7,9.09 23.32,8.19 28.54,0.95 z"
               id="path5103" />
            <path
               style="fill:#000000;fill-opacity:1"
               inkscape:connector-curvature="0"
               d="m 129.81,171.61 c -28.21,-2.75 -58.22,6.35 -81.79,-4.46 -5.86,-2.69 -13.28,-8.46 -16.48,-14.311 -17.49,-31.89 9.53,-60.47 39.52,-64.02 6.33,-0.75 12.15,0.2 20.03,-0.42 -1.26,6.05 0.5,16.94 -1.03,24.69 -18.37,-0.58 -41.35,2.45 -37.34,20.81 2.28,10.43 12.7,14.13 24.21,14.92 24.129,1.65 54.72,-8 78.7,3.76 19.8,9.71 27.26,39.96 14.29,57.51 -8.07,10.92 -22.66,13.76 -46.689,15.62 -0.15,-7.45 -0.311,-14.9 -0.461,-22.35 11.641,-0.49 27.62,-1.53 29.021,-12.931 C 153.5,176.47 136.41,172.26 129.81,171.61 z"
               id="path5105" />
            <path
               style="fill:#000000;fill-opacity:1"
               inkscape:connector-curvature="0"
               d="m 90.07,224.85 c -9.06,0.62 -17,2.32 -20.64,8.141 -3.87,18.76 18.15,19.37 33.56,20.109 24.2,1.17 49.16,0.311 53.649,22.78 -35.46,-11.03 -113.97,12.65 -111.84,-40.84 0.94,-23.48 19.56,-30.16 45.61,-31.01 0.041,9.35 0.531,15.14 -0.339,20.82 z"
               id="path5107" />
          </g>
        </g>
        <path
           sodipodi:nodetypes="cccccccccccccccc"
           inkscape:connector-curvature="0"
           id="path5109"
           d="m 124.01045,50.765387 c 2.03731,0 3.75274,1.195005 4.25447,2.816387 l 0.008,0 0,10.383438 1.49724,0 0,2.005127 -11.51569,0 0,-2.005127 1.50133,0 0,-10.362182 -0.004,0 c 10e-4,-0.0047 0.002,-0.0095 0.004,-0.01417 l 0,-0.007 0.004,0 c 0.50175,-1.621363 2.21309,-2.816388 4.25038,-2.816388 z"
           style="fill:#000000;fill-opacity:1;fill-rule:evenodd;stroke:none" />
        <path
           sodipodi:nodetypes="ccccccccccccccccccccccccc"
           inkscape:connector-curvature="0"
           style="fill:#000000;fill-opacity:1;fill-rule:evenodd;stroke:none"
           d="m 125.99747,64.846925 0,3.143186 0.59908,0 0,2.160941 -0.59908,0 0,39.952378 -1.0271,0 0,-39.952378 -0.33237,0 0,-2.160941 0.33237,0 0,-3.143186 -1.87661,0 0,3.143186 0.38308,0 0,2.160941 -0.38308,0 0,35.227448 -1.0271,0 0,-35.227448 -0.63857,0 0,-2.160941 0.63857,0 0,-3.143186 z"
           id="path5111" />
      </g>
    </g>
  </g>
</svg>
