<?xml version="1.0" encoding="utf-8"?>
<!-- Generator: Adobe Illustrator 16.0.0, SVG Export Plug-In . SVG Version: 6.00 Build 0)  -->
<!DOCTYPE svg PUBLIC "-//W3C//DTD SVG 1.1//EN" "http://www.w3.org/Graphics/SVG/1.1/DTD/svg11.dtd">
<svg version="1.1" id="Layer_1" xmlns="http://www.w3.org/2000/svg" xmlns:xlink="http://www.w3.org/1999/xlink" x="0px" y="0px"
	 width="283.46px" height="283.46px" viewBox="0 0 283.46 283.46" enable-background="new 0 0 283.46 283.46" xml:space="preserve">
<g id="MTEXT">
	<text transform="matrix(0 -1 1 0 40.1006 186.3145)" font-family="'MyriadPro-Regular'" font-size="21">plywood</text>
</g>
<g id="INSERT_70_">
	<g id="SPLINE_252_">
		
			<path fill="none" stroke="#000000" stroke-width="0.7087" stroke-linecap="round" stroke-linejoin="round" stroke-miterlimit="10" d="
			M171.536,165.103c-1.631,3.539-0.673,8.652,2.129,11.363l37.711,36.479c2.802,2.711,7.21,2.541,9.796-0.375l36.363-40.994
			c2.586-2.914,3.361-8.193,1.722-11.73L219.45,73.968c-1.64-3.537-4.314-3.533-5.945,0.006L171.536,165.103z"/>
	</g>
	<g id="SPLINE_253_">
		
			<circle fill="none" stroke="#000000" stroke-width="0.7087" stroke-linecap="round" stroke-linejoin="round" stroke-miterlimit="10" cx="216.405" cy="88.867" r="1.984"/>
	</g>
	<g id="SPLINE_254_">
		
			<circle fill="none" stroke="#000000" stroke-width="0.7087" stroke-linecap="round" stroke-linejoin="round" stroke-miterlimit="10" cx="216.404" cy="204.286" r="1.984"/>
	</g>
	<g id="SPLINE_255_">
		
			<path fill="none" stroke="#000000" stroke-width="0.7087" stroke-linecap="round" stroke-linejoin="round" stroke-miterlimit="10" d="
			M244.749,164.696c0,15.656-12.691,28.348-28.346,28.348c-15.656,0-28.346-12.691-28.346-28.348v-11.34
			c0-14.294,10.582-26.112,24.342-28.058v-9.888h8.008v9.888c13.758,1.946,24.342,13.765,24.342,28.058
			C244.751,153.356,244.751,164.696,244.749,164.696z"/>
	</g>
</g>
<g id="INSERT_72_">
	<g id="SPLINE_256_">
		
			<path fill="none" stroke="#000000" stroke-width="0.7087" stroke-linecap="round" stroke-linejoin="round" stroke-miterlimit="10" d="
			M163.188,163.292c1.631,3.539,0.673,8.654-2.129,11.363l-37.711,36.479c-2.802,2.711-7.21,2.541-9.796-0.375l-36.361-40.992
			c-2.586-2.916-3.361-8.195-1.722-11.732l39.805-85.876c1.64-3.535,4.314-3.533,5.945,0.008L163.188,163.292z"/>
	</g>
	<g id="SPLINE_257_">
		
			<circle fill="none" stroke="#000000" stroke-width="0.7087" stroke-linecap="round" stroke-linejoin="round" stroke-miterlimit="10" cx="118.321" cy="87.056" r="1.984"/>
	</g>
	<g id="SPLINE_258_">
		
			<circle fill="none" stroke="#000000" stroke-width="0.7087" stroke-linecap="round" stroke-linejoin="round" stroke-miterlimit="10" cx="118.321" cy="202.476" r="1.984"/>
	</g>
	<g id="INSERT_71_">
		<g id="POLYLINE_40_">
			
				<polyline fill="none" stroke="#000000" stroke-width="0.7087" stroke-linecap="round" stroke-linejoin="round" stroke-miterlimit="10" points="
				123.603,135.55 124.903,133.273 126.204,130.998 126.431,130.378 126.437,129.738 126.233,129.13 125.831,128.611 
				124.53,127.419 123.229,126.228 121.929,125.035 120.628,123.841 120.013,123.46 119.321,123.333 118.63,123.46 118.013,123.841 
				116.714,125.035 115.413,126.228 114.112,127.419 112.812,128.611 112.409,129.13 112.206,129.74 112.212,130.378 
				112.438,130.998 113.739,133.273 115.04,135.55 116.341,137.826 117.64,140.103 117.95,140.507 118.351,140.814 118.815,141.007 
				119.321,141.076 119.827,141.007 120.292,140.814 120.692,140.507 121.001,140.103 122.302,137.826 123.603,135.55 			"/>
		</g>
		<g id="POLYLINE_41_">
			
				<polyline fill="none" stroke="#000000" stroke-width="0.7087" stroke-linecap="round" stroke-linejoin="round" stroke-miterlimit="10" points="
				117.563,153.479 117.542,153.001 117.509,152.524 116.589,147.788 114.845,143.067 112.579,138.527 110.089,134.337 
				107.651,130.707 105.556,127.839 104.077,125.951 103.505,125.253 102.901,124.775 102.187,124.574 101.45,124.656 
				100.776,125.025 100.298,125.626 100.097,126.341 100.177,127.08 100.546,127.751 100.581,127.792 100.681,127.91 
				100.841,128.107 101.063,128.382 102.257,129.902 103.942,132.173 105.929,135.042 108.021,138.357 110.028,141.964 
				111.751,145.702 113.019,149.392 113.649,152.843 113.677,153.231 113.696,153.63 113.708,154.036 113.712,154.45 
				113.397,158.622 112.546,163.12 111.335,167.655 109.937,171.946 109.224,173.919 108.532,175.729 107.888,177.351 
				107.31,178.745 107.052,179.349 106.819,179.882 106.616,180.345 106.446,180.731 106.31,181.034 106.208,181.253 
				106.147,181.386 106.126,181.429 105.942,182.177 106.056,182.911 106.437,183.55 107.054,184.007 107.255,184.089 
				107.46,184.147 107.671,184.181 107.878,184.192 108.411,184.116 108.901,183.899 109.317,183.55 109.63,183.079 
				109.978,182.315 110.876,180.251 112.14,177.138 113.591,173.228 115.042,168.765 116.319,163.999 117.231,159.151 
				117.583,154.45 117.579,153.962 117.563,153.479 			"/>
		</g>
		<g id="SPLINE_259_">
			
				<polygon fill="none" stroke="#000000" stroke-width="0.7087" stroke-linecap="round" stroke-linejoin="round" stroke-miterlimit="10" points="
				138.345,125.626 137.868,125.025 137.194,124.656 136.456,124.574 135.741,124.777 135.138,125.251 134.565,125.951 
				133.089,127.839 130.991,130.707 128.554,134.337 126.065,138.527 123.798,143.067 122.054,147.788 121.134,152.524 
				121.101,152.999 121.077,153.479 121.062,153.962 121.058,154.45 121.411,159.151 122.321,163.999 123.599,168.765 
				125.054,173.228 126.503,177.138 127.769,180.251 128.665,182.315 129.013,183.079 129.323,183.55 129.741,183.899 
				130.231,184.118 130.767,184.192 130.974,184.183 131.181,184.147 131.388,184.089 131.589,184.009 132.206,183.55 
				132.587,182.911 132.7,182.177 132.517,181.431 132.495,181.386 132.433,181.253 132.333,181.036 132.198,180.729 
				131.464,179.054 130.438,176.567 129.241,173.44 127.995,169.847 126.821,165.97 125.841,161.981 125.173,158.075 
				124.929,154.45 124.935,154.038 124.944,153.632 124.966,153.233 124.993,152.843 125.769,148.872 127.345,144.634 
				129.452,140.392 131.819,136.416 133.009,134.599 134.155,132.937 135.22,131.457 136.169,130.185 136.591,129.636 
				136.968,129.152 137.3,128.732 137.581,128.382 137.802,128.109 137.964,127.91 138.063,127.792 138.095,127.751 138.466,127.08 
				138.546,126.341 			"/>
		</g>
	</g>
</g>
</svg>
